# xmcd CD database file
#
# Track frame offsets:
#	150
#	24620
#	55485
#
# Disc length: 4440 seconds
#
# Revision: 0
# Processed by: cddbd v1.5.1PL0 Copyright (c) Steve Scherf et al.
# Submitted via: CDex 1.51
#
DISCID=22115603
DTITLE=氷室京介 - WILD ROMANCE
DYEAR=2004
DGENRE=JPop
TTITLE0=WILD ROMANCE
TTITLE1=SHADOW OF YOUR SMILE
TTITLE2=CCCD
EXTD=YEAR: 2004
EXTT0=
EXTT1=
EXTT2=
PLAYORDER=
